<svg width="135" height="51" viewBox="0 0 135 51" fill="none" xmlns="http://www.w3.org/2000/svg">
<path d="M34.3929 1.02203C34.0714 1.02203 33.8036 1.02203 33.4821 1.02203C33.2143 1.02203 32.9464 1.02203 32.6786 1.02203C29.0357 1.02203 24.6429 2.74335 23.0357 6.23976C20.625 2.4206 17.3036 1.02203 12.75 1.02203C4.44643 1.02203 0 6.23976 0 14.3084V33.1352H5.83929V15.7608C5.83929 10.8658 7.44643 6.40113 13.1786 6.40113C19.2321 6.40113 20.5714 10.5968 20.5714 15.707V33.1352H21.2143H26.4107V15.7608V15.707C26.4107 13.1788 26.7321 10.8658 27.8036 9.19826C27.9107 9.03689 28.0179 8.92931 28.125 8.76793C28.125 8.76793 28.125 8.71414 28.1786 8.71414C28.6071 8.17623 29.1429 7.74591 29.6786 7.36937C29.7321 7.36937 29.7857 7.31558 29.7857 7.31558C29.9464 7.26179 30.0536 7.15421 30.2143 7.10041C31.1786 6.67009 32.3571 6.40113 33.8571 6.40113C39.5893 6.40113 41.1964 10.8658 41.1964 15.7608V33.1352H47.0357V14.3084C47.0357 6.23976 42.6429 1.02203 34.3929 1.02203Z" fill="white"/>
<path d="M117.536 0C107.518 0 100.071 8.01486 100.071 16.8904C100.071 25.0666 106.661 34.1573 117.536 34.1573C128.518 34.1573 135 24.9052 135 16.9979C135 7.7459 127.339 0 117.536 0ZM117.536 29.1009C110.893 29.1009 105.536 23.7218 105.536 17.0517C105.536 10.3817 110.893 5.00256 117.536 5.00256C124.179 5.00256 129.536 10.3817 129.536 17.0517C129.536 23.7218 124.179 29.1009 117.536 29.1009Z" fill="white"/>
<path d="M91.125 4.73358L87 0.591675L74.7321 12.9098L62.4107 0.591675L58.2857 4.73358L70.6071 17.1055L58.2857 29.4236L62.4107 33.5655L74.7321 21.2474L87 33.5655L91.125 29.4236L78.8571 17.1055L91.125 4.73358Z" fill="white"/>
<path d="M11.6034 49.8743C11.11 49.6266 10.74 49.255 10.4317 48.7597C10.1233 48.2643 10 47.7689 10 47.1497C10 46.5305 10.1233 46.0351 10.4317 45.5397C10.74 45.0443 11.11 44.7347 11.6034 44.4251C12.0968 44.1774 12.6518 44.0536 13.2685 44.0536C13.8235 44.0536 14.3169 44.1774 14.7485 44.3632C15.1802 44.549 15.5502 44.8586 15.7969 45.1682L14.7485 46.1589C14.3785 45.7255 13.8852 45.4778 13.3918 45.4778C13.0835 45.4778 12.7751 45.5397 12.5284 45.6636C12.2818 45.7874 12.0968 45.9732 11.9734 46.2828C11.8501 46.5305 11.7884 46.8401 11.7884 47.1497C11.7884 47.4593 11.8501 47.7689 11.9734 48.0166C12.0968 48.2643 12.2818 48.4501 12.5284 48.6358C12.7751 48.7597 13.0835 48.8216 13.3918 48.8216C13.9468 48.8216 14.3785 48.5739 14.7485 48.1404L15.7969 49.1312C15.4886 49.5027 15.1802 49.7504 14.7485 49.9362C14.3169 50.122 13.8235 50.2458 13.2685 50.2458C12.6518 50.2458 12.0968 50.1219 11.6034 49.8743Z" fill="white"/>
<path d="M19.4971 48.5739H18.5721V50.122H16.907V44.2394H19.6204C20.1755 44.2394 20.6071 44.3013 20.9772 44.4871C21.3472 44.6728 21.6555 44.9205 21.9022 45.2301C22.0872 45.5397 22.2105 45.9732 22.2105 46.4067C22.2105 46.8401 22.0872 47.2116 21.9022 47.5213C21.7172 47.8309 21.4088 48.0785 21.0388 48.2643L22.3339 50.122H20.6071L19.4971 48.5739ZM20.2988 45.7874C20.1138 45.6636 19.8671 45.5397 19.4971 45.5397H18.5721V47.2736H19.4971C19.8671 47.2736 20.1138 47.2116 20.2988 47.0259C20.4838 46.902 20.5455 46.6543 20.5455 46.4067C20.5455 46.159 20.4838 45.9113 20.2988 45.7874Z" fill="white"/>
<path d="M28.3158 48.8216V50.122H23.5673V44.2394H28.1925V45.5397H25.2323V46.5305H27.8224V47.7689H25.2323V48.8216H28.3158ZM26.219 42.4436H27.8224L26.219 43.744H25.0473L26.219 42.4436Z" fill="white"/>
<path d="M33.6193 49.0074H31.1526L30.7209 50.1839H28.9941L31.5843 44.3013H33.2493L35.8394 50.1839H34.1127L33.6193 49.0074ZM33.126 47.7689L32.386 45.8494L31.6459 47.7689H33.126Z" fill="white"/>
<path d="M37.6278 45.5397H35.8394V44.2394H41.0813V45.5397H39.2929V50.122H37.6278V45.5397Z" fill="white"/>
<path d="M42.1297 44.2394H43.7948V50.122H42.1297V44.2394Z" fill="white"/>
<path d="M51.3801 44.2394L48.8517 50.122H47.1866L44.6581 44.2394H46.5082L48.1116 48.0786L49.715 44.2394H51.3801Z" fill="white"/>
<path d="M52.1202 44.2394H53.7853V50.122H52.1202V44.2394Z" fill="white"/>
<path d="M56.6837 45.5397H54.8953V44.2394H60.1372V45.5397H58.3487V50.122H56.6837V45.5397Z" fill="white"/>
<path d="M65.8724 48.8216V50.122H61.1238V44.2394H65.749V45.5397H62.7889V46.5305H65.379V47.7689H62.7889V48.8216H65.8724ZM63.7756 42.4436H65.379L63.7756 43.744H62.6039L63.7756 42.4436Z" fill="white"/>
<path d="M70.1276 44.2394H72.9027C73.5194 44.2394 74.1361 44.3632 74.6294 44.6109C75.1228 44.8586 75.4928 45.1682 75.8011 45.6636C76.0478 46.097 76.2328 46.6543 76.2328 47.2116C76.2328 47.8309 76.1095 48.3262 75.8011 48.7597C75.5545 49.1931 75.1228 49.5647 74.6294 49.8124C74.1361 50.0601 73.581 50.1839 72.9027 50.1839H70.1276V44.2394ZM72.841 48.8216C73.3344 48.8216 73.7661 48.6978 74.0744 48.3882C74.3827 48.0786 74.5061 47.707 74.5061 47.2116C74.5061 46.7163 74.3827 46.2828 74.0744 46.0351C73.7661 45.7874 73.3344 45.6017 72.841 45.6017H71.7926V48.8216H72.841Z" fill="white"/>
<path d="M78.638 44.0536C78.823 44.2394 78.8847 44.4252 78.8847 44.7348C78.8847 44.8586 78.8847 44.9825 78.823 45.1063C78.7613 45.2301 78.6997 45.4159 78.5763 45.6636L78.0213 46.902H77.0346L77.4046 45.5398C77.2196 45.4778 77.0963 45.354 77.0346 45.2301C76.9729 45.1063 76.9113 44.9205 76.9113 44.7348C76.9113 44.4252 76.9729 44.2394 77.1579 44.0536C77.3429 43.8679 77.5896 43.8059 77.8363 43.8059C78.2063 43.8059 78.453 43.8679 78.638 44.0536Z" fill="white"/>
<path d="M83.7565 49.0074H81.2898L80.8581 50.1839H79.1313L81.7215 44.3013H83.3865L85.9766 50.1839H84.2499L83.7565 49.0074ZM83.2632 47.7689L82.5232 45.8494L81.7831 47.7689H83.2632Z" fill="white"/>
<path d="M88.505 45.5397V46.8401H91.0952V48.1405H88.505V50.1839H86.84V44.3013H91.4652V45.6017H88.505V45.5397Z" fill="white"/>
<path d="M94.302 45.5397V46.8401H96.8921V48.1405H94.302V50.1839H92.6369V44.3013H97.2621V45.6017H94.302V45.5397Z" fill="white"/>
<path d="M102.196 49.0074H99.7289L99.2972 50.1839H97.5704L100.161 44.3013H101.826L104.416 50.1839H102.627L102.196 49.0074ZM101.702 47.7689L100.962 45.8494L100.222 47.7689H101.702Z" fill="white"/>
<path d="M105.279 44.2394H106.944V50.122H105.279V44.2394Z" fill="white"/>
<path d="M111.138 48.5739H110.213V50.122H108.548V44.2394H111.261C111.816 44.2394 112.248 44.3013 112.618 44.4871C112.988 44.6728 113.296 44.9205 113.543 45.2301C113.728 45.5397 113.851 45.9732 113.851 46.4067C113.851 46.8401 113.728 47.2116 113.543 47.5213C113.358 47.8309 113.049 48.0785 112.679 48.2643L113.974 50.122H112.186L111.138 48.5739ZM111.939 45.7874C111.754 45.6636 111.508 45.5397 111.138 45.5397H110.213V47.2736H111.138C111.508 47.2736 111.754 47.2116 111.939 47.0259C112.124 46.902 112.186 46.6543 112.186 46.4067C112.186 46.159 112.063 45.9113 111.939 45.7874Z" fill="white"/>
<path d="M119.895 48.8216V50.122H115.146V44.2394H119.771V45.5397H116.811V46.5305H119.401V47.7689H116.811V48.8216H119.895Z" fill="white"/>
<path d="M121.93 50.06C121.498 49.9362 121.128 49.8123 120.82 49.5646L121.375 48.3262C121.622 48.512 121.93 48.6358 122.3 48.7597C122.67 48.8835 122.978 48.9454 123.348 48.9454C123.965 48.9454 124.335 48.7597 124.335 48.4501C124.335 48.2643 124.273 48.1404 124.088 48.0785C123.903 48.0166 123.595 47.8928 123.225 47.8308C122.793 47.707 122.423 47.6451 122.115 47.5212C121.807 47.3974 121.56 47.2116 121.375 46.9639C121.19 46.7162 121.066 46.4066 121.066 45.9732C121.066 45.6016 121.19 45.292 121.375 44.9824C121.56 44.6728 121.868 44.487 122.238 44.3013C122.608 44.1155 123.102 44.0536 123.657 44.0536C124.027 44.0536 124.397 44.1155 124.828 44.1774C125.198 44.2394 125.507 44.3632 125.815 44.549L125.322 45.7874C124.767 45.4778 124.212 45.354 123.718 45.354C123.41 45.354 123.163 45.4159 122.978 45.4778C122.855 45.6016 122.732 45.7255 122.732 45.8493C122.732 45.9732 122.793 46.097 122.978 46.2209C123.163 46.2828 123.472 46.4066 123.842 46.4685C124.273 46.5924 124.643 46.6543 124.952 46.7782C125.26 46.902 125.507 47.0878 125.692 47.2735C125.877 47.5212 126 47.8308 126 48.2643C126 48.6358 125.877 48.9454 125.692 49.255C125.507 49.5646 125.198 49.7504 124.828 49.9362C124.458 50.122 123.965 50.1839 123.41 50.1839C122.855 50.2458 122.362 50.1839 121.93 50.06Z" fill="white"/>
</svg>
